<?xml version="1.0" encoding="UTF-8" standalone="no"?>
<svg
   xmlns:dc="http://purl.org/dc/elements/1.1/"
   xmlns:cc="http://creativecommons.org/ns#"
   xmlns:rdf="http://www.w3.org/1999/02/22-rdf-syntax-ns#"
   xmlns:svg="http://www.w3.org/2000/svg"
   xmlns="http://www.w3.org/2000/svg"
   width="16"
   height="16"
   viewBox="0 0 4.2333332 4.2333335"
   version="1.1"
   id="svg4726">
  <defs
     id="defs4720" />
  <metadata
     id="metadata4723">
    <rdf:RDF>
      <cc:Work
         rdf:about="">
        <dc:format>image/svg+xml</dc:format>
        <dc:type
           rdf:resource="http://purl.org/dc/dcmitype/StillImage" />
        <dc:title></dc:title>
      </cc:Work>
    </rdf:RDF>
  </metadata>
  <g
     style="opacity:0.35"
     id="layer1"
     transform="matrix(1.0422782,0,0,1.0422782,-0.08948887,-305.23378)">
    <path
       style="opacity:1;fill:#4d4d4d;fill-opacity:1;stroke-width:0.00753236"
       d="m 1.0777033,296.78956 c -0.00618,-10e-4 -0.023919,-0.004 -0.039329,-0.007 -0.034987,-0.006 -0.069591,-0.0343 -0.089978,-0.0742 -0.0322934,-0.0633 -0.0498975,-0.0181 0.4720136,-1.21028 0.2638949,-0.60277 0.4826908,-1.10336 0.486213,-1.1124 0.0056,-0.0147 0.00192,-0.0192 -0.026214,-0.0356 -0.1161031,-0.068 -0.2073989,-0.23415 -0.2073989,-0.37732 0,-0.28287 0.2773097,-0.4962 0.5532814,-0.4256 0.1928229,0.0493 0.3350125,0.22995 0.3350125,0.4256 0,0.14321 -0.091301,0.30928 -0.2073991,0.37732 -0.028143,0.0165 -0.031748,0.0214 -0.026214,0.0356 0.00353,0.008 0.2224786,0.50963 0.4865678,1.1124 0.401863,0.91724 0.4807287,1.10282 0.4836401,1.13805 0.00647,0.0785 -0.041375,0.1366 -0.1258177,0.15278 -0.039579,0.007 -0.093392,-0.0132 -0.1230211,-0.0482 -0.016558,-0.0193 -0.067487,-0.12658 -0.1519335,-0.31973 -0.069871,-0.15986 -0.1307339,-0.29528 -0.1352526,-0.30096 -0.00678,-0.008 -0.1334715,0.0236 -0.7246396,0.18354 -0.3940267,0.10656 -0.7211438,0.19565 -0.726927,0.19785 -0.00574,0.003 -0.031882,0.0532 -0.057993,0.11319 -0.051944,0.11938 -0.074007,0.14814 -0.1285113,0.16737 -0.018119,0.006 -0.033354,0.0118 -0.033869,0.0104 -5.151e-4,-4.8e-4 -0.00604,-0.001 -0.012217,-0.003 z m 0.8699865,-0.70387 c 0.2775658,-0.0746 0.5114457,-0.1388 0.519731,-0.14233 0.014425,-0.006 0.014278,-0.007 -0.00383,-0.0132 -0.1077428,-0.0414 -0.7851242,-0.28138 -0.7874895,-0.27901 -0.00353,0.003 -0.251974,0.57029 -0.251974,0.57488 0,0.001 0.00426,0.001 0.00942,-3.7e-4 0.00515,-0.001 0.2365161,-0.0644 0.514082,-0.13924 z m 0.6337632,-0.38607 c -0.026863,-0.0629 -0.1720706,-0.39375 -0.1734424,-0.39517 -0.00192,-10e-4 -0.4539784,0.16889 -0.469055,0.17733 -0.00736,0.004 0.097807,0.0455 0.3152198,0.12378 0.1794271,0.0647 0.3288187,0.1179 0.3319818,0.11804 0.0031,1.8e-4 0.00104,-0.0104 -0.00471,-0.0241 z m -0.4567529,-0.54045 c 0.1015023,-0.0383 0.185397,-0.0704 0.1864436,-0.0712 0.0031,-0.003 -0.189698,-0.44092 -0.1939489,-0.44092 -0.00294,0 -0.249139,0.55597 -0.2687565,0.60711 -0.00324,0.008 0.00662,0.007 0.04373,-0.007 0.026391,-0.0104 0.1310281,-0.0495 0.2325331,-0.0879 z M 0.87674072,294.9558 c -0.0780839,-0.0347 -0.23593169,-0.29003 -0.30736135,-0.49713 -0.0893,-0.25891 -0.10453407,-0.55736 -0.0419785,-0.82205 0.0529294,-0.22399 0.17333641,-0.46389 0.30509612,-0.60787 0.0623197,-0.0682 0.15110797,-0.0732 0.21226681,-0.0118 0.058699,0.0587 0.060554,0.12467 0.00574,0.20215 -0.11926788,0.16854 -0.16988649,0.263 -0.21240659,0.39639 -0.0418314,0.13115 -0.0501768,0.19126 -0.0502654,0.36128 -5.733e-5,0.13351 0.002356,0.16553 0.0175154,0.23661 0.0360909,0.16863 0.10279702,0.31813 0.20777009,0.46562 0.068781,0.0967 0.080072,0.12923 0.064645,0.18658 -0.015587,0.0578 -0.084031,0.10641 -0.14775648,0.10494 -0.0119219,-2.8e-4 -0.0358846,-0.007 -0.0532092,-0.0147 z m 2.37187148,0.007 c -0.035576,-0.0104 -0.081999,-0.0603 -0.0922,-0.0982 -0.015676,-0.0582 -0.00129,-0.0958 0.078747,-0.20633 0.0898,-0.12394 0.1592887,-0.28346 0.1938782,-0.44508 0.015204,-0.0711 0.017575,-0.10299 0.017501,-0.2366 -8.54e-5,-0.17003 -0.00839,-0.23008 -0.050265,-0.36128 -0.042524,-0.13336 -0.093127,-0.22785 -0.2124064,-0.3964 -0.03537,-0.05 -0.045497,-0.0883 -0.035237,-0.1332 0.019134,-0.0837 0.1176045,-0.1338 0.197265,-0.10028 0.061422,0.0259 0.1716113,0.17814 0.2546307,0.35169 0.099382,0.20775 0.1438484,0.40705 0.1433774,0.64258 -4.592e-4,0.23217 -0.045982,0.43179 -0.1464537,0.64219 -0.063851,0.13364 -0.1843226,0.30647 -0.2302532,0.33023 -0.029423,0.0151 -0.086665,0.0203 -0.1185906,0.0104 z m -1.874338,-0.28506 c -0.072932,-0.0331 -0.1876991,-0.21507 -0.2426935,-0.38476 -0.072608,-0.22404 -0.064572,-0.47293 0.02252,-0.69788 0.054224,-0.13997 0.1631642,-0.29806 0.2226052,-0.32289 0.056211,-0.0236 0.1147933,-0.0118 0.1576519,0.0308 0.058714,0.0587 0.060569,0.12467 0.0056,0.20214 -0.1034746,0.14601 -0.1463507,0.25333 -0.1607341,0.40221 -0.016957,0.17537 0.034472,0.36352 0.1376077,0.50342 0.051575,0.0699 0.060995,0.0915 0.060657,0.13909 -7.404e-4,0.10351 -0.1081845,0.17104 -0.2032866,0.12791 z m 1.3772034,0.006 c -0.036945,-0.0104 -0.080454,-0.0582 -0.090727,-0.0989 -0.014425,-0.0572 -0.0025,-0.0937 0.056682,-0.17402 0.1031358,-0.13997 0.1545638,-0.32804 0.1376076,-0.50342 -0.014425,-0.14888 -0.057257,-0.25615 -0.1607341,-0.4022 -0.030454,-0.043 -0.046983,-0.0925 -0.039196,-0.11732 0.00176,-0.006 0.00515,-0.0193 0.00765,-0.0306 0.00618,-0.0283 0.046173,-0.072 0.077863,-0.0853 0.033648,-0.0147 0.083059,-0.0132 0.1170157,1.9e-4 0.05945,0.0249 0.1683879,0.18287 0.2226051,0.3229 0.1166332,0.30123 0.090743,0.63043 -0.071314,0.90657 -0.095512,0.16274 -0.1617776,0.20961 -0.2574318,0.18201 z"
       id="path5390" />
  </g>
</svg>
